<svg width="91" height="110" viewBox="0 0 91 110" fill="none" xmlns="http://www.w3.org/2000/svg">
<g id="Union" filter="url(#filter0_d_3055_1652)">
<path fill-rule="evenodd" clip-rule="evenodd" d="M82.9904 10.6641C82.9903 10.6664 82.9903 10.6676 82.9902 10.6676C82.9901 10.6676 82.9898 10.6656 82.9892 10.6616C82.9855 10.6351 82.9691 10.52 82.8984 10.3097C82.8125 10.054 82.6676 9.72203 82.4474 9.34001C82.0074 8.57682 81.3015 7.67426 80.2759 6.83145C78.2605 5.17523 74.9222 3.67812 69.7298 4.06004C60.9244 4.70771 53.7676 7.65435 48.4447 11.6471C52.9503 15.9627 55.9164 21.0466 57.0745 26.076C57.4815 25.5585 57.9158 25.0633 58.3731 24.5944C61.2523 21.642 65.2538 19.5168 69.583 19.5168H82.9904V10.6641ZM35.597 100.134C36.649 100.878 37.9518 101.154 39.3081 101.154H51.7702C53.4354 101.154 55.0198 100.737 56.1585 99.5515C57.2822 98.3811 57.6222 96.8224 57.6222 95.3165V34.322C57.9591 31.9208 59.2585 29.4157 61.2368 27.3871C63.5455 25.0197 66.5679 23.5168 69.583 23.5168H84.9904H86.9904V21.5168V10.6603C86.9904 9.64779 86.5483 8.44464 85.9128 7.34226C85.2385 6.17254 84.2221 4.89697 82.8155 3.74108C79.9666 1.3999 75.6012 -0.382627 69.4363 0.0708201C59.5968 0.794552 51.4154 4.23335 45.346 8.99208C39.3073 4.36243 31.2324 1.02998 21.5543 0.319533C15.3905 -0.132936 11.0256 1.64565 8.17661 3.98225C6.76991 5.13594 5.75322 6.40925 5.07858 7.57719C4.44294 8.67762 4.00012 9.87967 4.00012 10.8922V21.7274V23.7274H6.00012H21.4079C24.4246 23.7274 27.4475 25.228 29.7558 27.5903C31.735 29.6159 33.0339 32.1165 33.3698 34.5122V95.2505C33.3698 96.7579 33.7093 98.318 34.832 99.4897C35.0688 99.7368 35.3249 99.9506 35.597 100.134ZM33.8478 26.1883C33.4603 25.7025 33.0488 25.2369 32.6167 24.7948C29.7371 21.8477 25.7358 19.7274 21.4079 19.7274H8.00012V10.8967C8.00012 10.8975 8.00013 10.8982 8.00014 10.8987C8.00016 10.8995 8.0002 10.8999 8.00026 10.8999C8.0004 10.8999 8.00069 10.8979 8.00127 10.8938C8.00508 10.8673 8.02146 10.7531 8.09168 10.5446C8.1775 10.2899 8.32216 9.95896 8.54226 9.57793C8.98194 8.81675 9.68764 7.9162 10.7132 7.07511C12.7286 5.42216 16.0677 3.92754 21.2615 4.3088C29.9201 4.9444 36.9839 7.79797 42.2777 11.6807C37.831 16.0381 34.9314 21.1494 33.8478 26.1883ZM37.8675 96.8375C37.8409 96.8165 37.8206 96.7973 37.8052 96.7812C37.6827 96.6536 37.4561 96.2937 37.4561 95.3165V35.7229C37.4561 35.2321 37.4267 34.7418 37.3698 34.2539V30.5639C37.3698 25.3575 40.1326 19.2831 45.3758 14.2508C50.7752 19.3169 53.6222 25.4842 53.6222 30.7568V34.0633C53.5648 34.5537 53.5352 35.0465 53.5352 35.5398V95.2505C53.5352 96.2311 53.3082 96.5935 53.1848 96.7223C53.0772 96.8347 52.7362 97.0955 51.6834 97.0955H39.2216C38.4526 97.0955 38.0634 96.9564 37.8675 96.8375Z" fill="#EB3850"/>
</g>
<defs>
<filter id="filter0_d_3055_1652" x="0.00012207" y="0" width="90.9902" height="109.154" filterUnits="userSpaceOnUse" color-interpolation-filters="sRGB">
<feFlood flood-opacity="0" result="BackgroundImageFix"/>
<feColorMatrix in="SourceAlpha" type="matrix" values="0 0 0 0 0 0 0 0 0 0 0 0 0 0 0 0 0 0 127 0" result="hardAlpha"/>
<feOffset dy="4"/>
<feGaussianBlur stdDeviation="2"/>
<feComposite in2="hardAlpha" operator="out"/>
<feColorMatrix type="matrix" values="0 0 0 0 0 0 0 0 0 0 0 0 0 0 0 0 0 0 0.25 0"/>
<feBlend mode="normal" in2="BackgroundImageFix" result="effect1_dropShadow_3055_1652"/>
<feBlend mode="normal" in="SourceGraphic" in2="effect1_dropShadow_3055_1652" result="shape"/>
</filter>
</defs>
</svg>
